<svg version="1.1" xmlns="http://www.w3.org/2000/svg" viewBox="0 0 1239 853" width="1239" height="853">
  <!-- svg-source:excalidraw -->
  
  <defs>
    <style class="style-fonts">
      @font-face {
        font-family: "Virgil";
        src: url("https://excalidraw.com/Virgil.woff2");
      }
      @font-face {
        font-family: "Cascadia";
        src: url("https://excalidraw.com/Cascadia.woff2");
      }
    </style>
    
  </defs>
  <rect x="0" y="0" width="1239" height="853" fill="#ffffff"></rect><g stroke-linecap="round" transform="translate(10 10) rotate(0 609.5 416.5)"><path d="M32 0 M32 0 C445.41 -4.85, 858.52 -4.53, 1187 0 M32 0 C332.13 4.6, 631.56 4.23, 1187 0 M1187 0 C1207.34 -1.36, 1218.22 11.2, 1219 32 M1187 0 C1208.31 0.15, 1218.71 8.66, 1219 32 M1219 32 C1218.76 243.19, 1219.23 453.35, 1219 801 M1219 32 C1217.16 279.78, 1216.93 528.54, 1219 801 M1219 801 C1219.51 821.17, 1208.53 834.05, 1187 833 M1219 801 C1221.19 824.36, 1209.79 833.27, 1187 833 M1187 833 C888.71 838.21, 590.03 837.78, 32 833 M1187 833 C769.3 828.97, 351.77 828.22, 32 833 M32 833 C11.81 833.18, -1.65 823.27, 0 801 M32 833 C9.64 833.9, -1.76 821.42, 0 801 M0 801 C2.15 590.44, 1.62 379.8, 0 32 M0 801 C2.1 566.25, 2.45 331.87, 0 32 M0 32 C1.66 12.51, 9.44 1.61, 32 0 M0 32 C2.06 10.83, 9.99 -1.28, 32 0" stroke="#1e1e1e" stroke-width="1" fill="none"></path></g><g stroke-linecap="round" transform="translate(51.46904981549815 166.91153136531364) rotate(0 147.86397601476017 29.721402214022135)"><path d="M14.86 0 M14.86 0 C107.1 -1.29, 199.2 1.39, 280.87 0 M14.86 0 C102.9 -0.35, 192.02 -1.17, 280.87 0 M280.87 0 C292.68 0.53, 297.27 5.32, 295.73 14.86 M280.87 0 C291.66 1.12, 296.91 5.88, 295.73 14.86 M295.73 14.86 C297.95 22.92, 297.33 29.81, 295.73 44.58 M295.73 14.86 C296.59 23.13, 296.5 32.02, 295.73 44.58 M295.73 44.58 C295.01 53.27, 290.15 58.94, 280.87 59.44 M295.73 44.58 C294.03 52.93, 290.32 60.47, 280.87 59.44 M280.87 59.44 C209.64 59.35, 136.54 60.1, 14.86 59.44 M280.87 59.44 C200.23 57.95, 118.18 56.99, 14.86 59.44 M14.86 59.44 C6.39 59, -0.31 53.8, 0 44.58 M14.86 59.44 C4.14 59.71, -1.44 53.29, 0 44.58 M0 44.58 C-0.97 31.84, -0.94 23.68, 0 14.86 M0 44.58 C-0.57 37.65, 0.92 32.11, 0 14.86 M0 14.86 C0.68 3.27, 6.37 -0.69, 14.86 0 M0 14.86 C1.52 5.56, 5.91 0.36, 14.86 0" stroke="#1e1e1e" stroke-width="1" fill="none"></path></g><g transform="translate(143.25802506731884 178.05705719557193) rotate(0 56.07500076293945 18.57587638376384)"><text x="56.07500076293945" y="0" font-family="Virgil, Segoe UI Emoji" font-size="29.72140221402215px" fill="#1e1e1e" text-anchor="middle" style="white-space: pre;" direction="ltr" dominant-baseline="text-before-edge">brainreg</text></g><g stroke-linecap="round" transform="translate(52.21208487084871 331.8653136531366) rotate(0 147.86397601476017 29.721402214022135)"><path d="M14.86 0 M14.86 0 C83.9 -0.72, 151.78 -1.57, 280.87 0 M14.86 0 C99.27 1.45, 184.13 2.65, 280.87 0 M280.87 0 C289.47 1.11, 294.84 6, 295.73 14.86 M280.87 0 C290.12 0.78, 295.26 2.74, 295.73 14.86 M295.73 14.86 C294.43 22.39, 295.22 31.49, 295.73 44.58 M295.73 14.86 C295.8 25.71, 296.07 36.6, 295.73 44.58 M295.73 44.58 C295.71 53.21, 289.75 58.1, 280.87 59.44 M295.73 44.58 C297.67 55.21, 291.97 59.58, 280.87 59.44 M280.87 59.44 C213.19 57.79, 144.18 59.35, 14.86 59.44 M280.87 59.44 C227.52 58.89, 172.6 59.92, 14.86 59.44 M14.86 59.44 C4.18 57.58, -1.98 53.88, 0 44.58 M14.86 59.44 C4.59 59.25, -0.19 52.91, 0 44.58 M0 44.58 C-0.16 36.74, 1.22 25.41, 0 14.86 M0 44.58 C0.3 37.49, 0.25 28.05, 0 14.86 M0 14.86 C1.27 4.47, 6.81 -1.97, 14.86 0 M0 14.86 C-1.11 5.47, 5.98 -0.2, 14.86 0" stroke="#1e1e1e" stroke-width="1" fill="none"></path></g><g transform="translate(136.21772729796237 343.0108394833949) rotate(0 63.858333587646484 18.57587638376384)"><text x="63.858333587646484" y="0" font-family="Virgil, Segoe UI Emoji" font-size="29.72140221402215px" fill="#1e1e1e" text-anchor="middle" style="white-space: pre;" direction="ltr" dominant-baseline="text-before-edge">cellfinder</text></g><g stroke-linecap="round" transform="translate(50.72601476014759 250.1314575645756) rotate(0 147.86397601476017 29.721402214022135)"><path d="M14.86 0 M14.86 0 C98.72 0.96, 183.47 3.36, 280.87 0 M14.86 0 C77.67 0.7, 139.93 0.77, 280.87 0 M280.87 0 C288.85 -0.57, 294.28 3.39, 295.73 14.86 M280.87 0 C289.52 -0.63, 295.39 5.5, 295.73 14.86 M295.73 14.86 C296.12 25.47, 296.65 36.14, 295.73 44.58 M295.73 14.86 C294.87 24.59, 295.85 33.15, 295.73 44.58 M295.73 44.58 C295.85 53.57, 289.4 58.18, 280.87 59.44 M295.73 44.58 C295.55 54.01, 288.48 61.24, 280.87 59.44 M280.87 59.44 C227.97 58.43, 171.93 60.48, 14.86 59.44 M280.87 59.44 C211.11 57.24, 141.78 57.3, 14.86 59.44 M14.86 59.44 C3.58 59.95, -0.35 56.32, 0 44.58 M14.86 59.44 C4.71 61.54, 1.34 54.68, 0 44.58 M0 44.58 C0.89 38.44, 0.79 27.59, 0 14.86 M0 44.58 C-0.91 33.29, 0.3 23.41, 0 14.86 M0 14.86 C-0.17 4.1, 5.68 0.9, 14.86 0 M0 14.86 C-0.65 5.42, 5.24 -1.41, 14.86 0" stroke="#1e1e1e" stroke-width="1" fill="none"></path></g><g transform="translate(120.01499382666555 261.2769833948339) rotate(0 78.57499694824219 18.57587638376384)"><text x="78.57499694824219" y="0" font-family="Virgil, Segoe UI Emoji" font-size="29.72140221402215px" fill="#1e1e1e" text-anchor="middle" style="white-space: pre;" direction="ltr" dominant-baseline="text-before-edge">brainrender</text></g><g stroke-linecap="round" transform="translate(38 67) rotate(0 300.0876383763838 222.5)"><path d="M32 0 M32 0 C150.97 -2.23, 268.92 -2.13, 568.18 0 M32 0 C161.95 -0.09, 291.25 0.06, 568.18 0 M568.18 0 C588.49 0.82, 600.56 10.27, 600.18 32 M568.18 0 C587.61 -0.63, 598.31 10.25, 600.18 32 M600.18 32 C599.23 153.08, 600.13 273.63, 600.18 413 M600.18 32 C598.56 155.08, 598.93 278.11, 600.18 413 M600.18 413 C600.33 432.88, 590.59 443.05, 568.18 445 M600.18 413 C601.23 435.13, 591.37 444.63, 568.18 445 M568.18 445 C386.63 445, 204.35 443.69, 32 445 M568.18 445 C456.83 444.28, 345.3 444.96, 32 445 M32 445 C12.29 446.95, -0.52 434.42, 0 413 M32 445 C11.12 444.71, 0.65 432.37, 0 413 M0 413 C1.32 277.85, 0.71 144.36, 0 32 M0 413 C-0.24 297.31, 0.5 181.8, 0 32 M0 32 C-0.37 10.74, 10.74 1.86, 32 0 M0 32 C0.94 11.36, 8.37 0.11, 32 0" stroke="#1e1e1e" stroke-width="1" fill="none"></path></g><g transform="translate(56.06273062730628 87.52583025830256) rotate(0 280.8666687011719 34.17009381481739)"><text x="0" y="0" font-family="Virgil, Segoe UI Emoji" font-size="27.33607505185392px" fill="#1e1e1e" text-anchor="start" style="white-space: pre;" direction="ltr" dominant-baseline="text-before-edge">Python tools with (optional) napari plugins</text><text x="0" y="34.1700938148174" font-family="Virgil, Segoe UI Emoji" font-size="27.33607505185392px" fill="#1e1e1e" text-anchor="start" style="white-space: pre;" direction="ltr" dominant-baseline="text-before-edge">exposed by metapackage</text></g><g transform="translate(362.3081180811808 184.4077490774908) rotate(0 107.34999847412107 10.262915129151281)"><text x="0" y="0" font-family="Virgil, Segoe UI Emoji" font-size="16.420664206642066px" fill="#1e1e1e" text-anchor="start" style="white-space: pre;" direction="ltr" dominant-baseline="text-before-edge">(including brainreg-segment)</text></g><g stroke-linecap="round" transform="translate(36.5 625) rotate(0 151 27)"><path d="M13.5 0 M13.5 0 C116.84 1.96, 221.95 2.43, 288.5 0 M13.5 0 C96.13 -1.59, 179.82 -2.59, 288.5 0 M288.5 0 C295.58 -1.33, 302.58 3.28, 302 13.5 M288.5 0 C295.79 -1.3, 300.7 4.02, 302 13.5 M302 13.5 C301.99 19.14, 302.7 27.24, 302 40.5 M302 13.5 C302.09 21.79, 301.55 30.55, 302 40.5 M302 40.5 C300.12 50.22, 296.59 54.36, 288.5 54 M302 40.5 C302 48.95, 296.43 51.72, 288.5 54 M288.5 54 C229 53.59, 169.77 53.32, 13.5 54 M288.5 54 C199 53.57, 108.97 53.83, 13.5 54 M13.5 54 C4.16 55.99, -0.45 49.4, 0 40.5 M13.5 54 C4.46 52.77, 0.09 49.84, 0 40.5 M0 40.5 C1.33 33.88, -1.68 23, 0 13.5 M0 40.5 C-0.59 31.89, 0.56 22.16, 0 13.5 M0 13.5 C0.28 5.32, 5.07 -1.92, 13.5 0 M0 13.5 C1.48 5.49, 4.85 -2.25, 13.5 0" stroke="#1e1e1e" stroke-width="1" fill="none"></path></g><g transform="translate(95.90833282470703 639.5) rotate(0 91.59166717529297 12.5)"><text x="91.59166717529297" y="0" font-family="Virgil, Segoe UI Emoji" font-size="20px" fill="#1e1e1e" text-anchor="middle" style="white-space: pre;" direction="ltr" dominant-baseline="text-before-edge">brainglobe-atlasapi</text></g><g stroke-linecap="round" transform="translate(36.5 756) rotate(0 151 27)"><path d="M13.5 0 M13.5 0 C76.6 0.7, 142.29 0.92, 288.5 0 M13.5 0 C99.9 0.32, 187.24 -0.46, 288.5 0 M288.5 0 C298.11 -1.24, 302 4.08, 302 13.5 M288.5 0 C296.98 -0.63, 303.6 2.63, 302 13.5 M302 13.5 C303.37 24.63, 303.64 31.99, 302 40.5 M302 13.5 C301.87 18.94, 301.8 25.13, 302 40.5 M302 40.5 C302.57 49.32, 296.38 52.99, 288.5 54 M302 40.5 C303.8 50.11, 296.35 52.42, 288.5 54 M288.5 54 C199.2 56.66, 111.31 55.05, 13.5 54 M288.5 54 C186.58 54.65, 83.2 54.01, 13.5 54 M13.5 54 C4.96 52.09, -1.95 50.44, 0 40.5 M13.5 54 C3.71 54.62, 0.67 48.9, 0 40.5 M0 40.5 C0.98 34.79, 0.57 28.39, 0 13.5 M0 40.5 C-0.45 34.95, 0.54 30.02, 0 13.5 M0 13.5 C1.85 3.93, 5.6 0.63, 13.5 0 M0 13.5 C1.88 5.39, 3.93 1.26, 13.5 0" stroke="#1e1e1e" stroke-width="1" fill="none"></path></g><g transform="translate(115.15833282470703 770.5) rotate(0 72.34166717529297 12.5)"><text x="72.34166717529297" y="0" font-family="Virgil, Segoe UI Emoji" font-size="20px" fill="#1e1e1e" text-anchor="middle" style="white-space: pre;" direction="ltr" dominant-baseline="text-before-edge">brainglobe-utils</text></g><g stroke-linecap="round" transform="translate(36.5 690) rotate(0 151 27)"><path d="M13.5 0 M13.5 0 C72.64 0.82, 129.24 1.08, 288.5 0 M13.5 0 C112.4 0.57, 210.78 0.26, 288.5 0 M288.5 0 C296.18 -0.98, 300.05 4.21, 302 13.5 M288.5 0 C298.74 1.11, 299.99 4.07, 302 13.5 M302 13.5 C300.19 17.76, 302.51 23.86, 302 40.5 M302 13.5 C302.83 22.25, 301.88 31.29, 302 40.5 M302 40.5 C300.73 49.49, 297.45 54.61, 288.5 54 M302 40.5 C300.06 47.9, 299.17 55.43, 288.5 54 M288.5 54 C231.24 53.02, 172.3 52.39, 13.5 54 M288.5 54 C211.15 53.06, 133.04 53.27, 13.5 54 M13.5 54 C4.54 55.97, 1.15 50.26, 0 40.5 M13.5 54 C5.58 55.74, -1.78 49.18, 0 40.5 M0 40.5 C0.38 32.63, -0.54 22.02, 0 13.5 M0 40.5 C0.49 31, -0.63 22.57, 0 13.5 M0 13.5 C-0.64 4.65, 3.26 1.57, 13.5 0 M0 13.5 C-0.95 5.24, 6.02 -1.39, 13.5 0" stroke="#1e1e1e" stroke-width="1" fill="none"></path></g><g transform="translate(95.48332977294922 704.5) rotate(0 92.01667022705078 12.5)"><text x="92.01667022705078" y="0" font-family="Virgil, Segoe UI Emoji" font-size="20px" fill="#1e1e1e" text-anchor="middle" style="white-space: pre;" direction="ltr" dominant-baseline="text-before-edge">brainglobe-napari-io</text></g><g stroke-linecap="round" transform="translate(52.70059963099632 410.0276752767528) rotate(0 147.86397601476017 42.5)"><path d="M21.25 0 M21.25 0 C100.91 0.58, 183.65 0.73, 274.48 0 M21.25 0 C98.4 1.16, 176.31 1.52, 274.48 0 M274.48 0 C288.35 -1.22, 297.23 8.93, 295.73 21.25 M274.48 0 C290.01 1.96, 296.05 6.38, 295.73 21.25 M295.73 21.25 C297.64 30.65, 294.73 42.98, 295.73 63.75 M295.73 21.25 C295.95 31.85, 295.52 42.08, 295.73 63.75 M295.73 63.75 C297.2 76.81, 287.86 83.28, 274.48 85 M295.73 63.75 C296.34 78.44, 289.65 83.71, 274.48 85 M274.48 85 C201.92 85.1, 127.39 86.6, 21.25 85 M274.48 85 C223.21 86.24, 170.67 86.11, 21.25 85 M21.25 85 C5.86 85.46, 0.98 76.62, 0 63.75 M21.25 85 C5.64 86.79, -0.87 79.22, 0 63.75 M0 63.75 C0.01 53.05, 1.11 41.32, 0 21.25 M0 63.75 C-0.38 52.38, -0.01 42.27, 0 21.25 M0 21.25 C1.56 7.13, 5.58 1.32, 21.25 0 M0 21.25 C0.65 8.88, 7.54 2.06, 21.25 0" stroke="#1e1e1e" stroke-width="1" fill="none"></path></g><g transform="translate(79.53124282104943 433.951798892989) rotate(0 121.03333282470703 18.57587638376384)"><text x="121.03333282470703" y="0" font-family="Virgil, Segoe UI Emoji" font-size="29.72140221402215px" fill="#1e1e1e" text-anchor="middle" style="white-space: pre;" direction="ltr" dominant-baseline="text-before-edge">atlas-packaging*</text></g><g transform="translate(40 27) rotate(0 223.7083282470703 12.5)"><text x="0" y="0" font-family="Virgil, Segoe UI Emoji" font-size="20px" fill="#1e1e1e" text-anchor="start" style="white-space: pre;" direction="ltr" dominant-baseline="text-before-edge">BrainGlobe eco-system of GitHub repositories</text></g><g stroke-linecap="round" transform="translate(29 556) rotate(0 312.5 135)"><path d="M32 0 M32 0 C241.28 1.84, 451.11 1.72, 593 0 M32 0 C229.23 -0.77, 426.12 -0.72, 593 0 M593 0 C615.95 1.37, 623.66 9.83, 625 32 M593 0 C614.96 -0.6, 624.79 12.3, 625 32 M625 32 C622.54 102.9, 625.7 170.06, 625 238 M625 32 C624.86 94.03, 625.93 155.85, 625 238 M625 238 C626.12 257.96, 616.19 271.4, 593 270 M625 238 C625.69 259.23, 615.28 272.26, 593 270 M593 270 C411.82 270.3, 229.25 269.67, 32 270 M593 270 C474.8 269.82, 356.51 270.31, 32 270 M32 270 C8.76 269.16, 1.45 260.93, 0 238 M32 270 C9.86 271.79, 0.32 260.84, 0 238 M0 238 C0.39 194.6, 0.29 151.2, 0 32 M0 238 C0.45 179.47, 0.63 120.24, 0 32 M0 32 C1.91 11.29, 9.61 -0.06, 32 0 M0 32 C-1.15 8.8, 8.52 -1.82, 32 0" stroke="#1e1e1e" stroke-width="1" fill="none"></path></g><g transform="translate(63 574) rotate(0 214.30833435058594 12.5)"><text x="0" y="0" font-family="Virgil, Segoe UI Emoji" font-size="20px" fill="#1e1e1e" text-anchor="start" style="white-space: pre;" direction="ltr" dominant-baseline="text-before-edge">Python libraries (shared code across tools)</text></g><g stroke-linecap="round" transform="translate(736 227) rotate(0 212 72)"><path d="M32 0 M32 0 C128.97 1.94, 227.56 0.83, 392 0 M32 0 C134.9 1.93, 238.59 1.2, 392 0 M392 0 C413.53 -0.58, 422.81 10.4, 424 32 M392 0 C411.75 1.76, 423.63 8.59, 424 32 M424 32 C423.16 48.75, 425.69 64.7, 424 112 M424 32 C423.99 54.39, 423.31 77.57, 424 112 M424 112 C424.71 133.46, 414.44 144.1, 392 144 M424 112 C425.97 133.55, 412.14 145.13, 392 144 M392 144 C277.17 145.5, 163.48 145.5, 32 144 M392 144 C257.1 145.49, 123.24 145.69, 32 144 M32 144 C12.48 144.24, 1.55 133.03, 0 112 M32 144 C11.01 146.27, 1.35 134.04, 0 112 M0 112 C-0.73 83.24, 2.35 54.28, 0 32 M0 112 C0.92 88.43, 1.35 63.98, 0 32 M0 32 C1.11 9.11, 10.01 -1.77, 32 0 M0 32 C-0.07 9.36, 9.45 0.7, 32 0" stroke="#1e1e1e" stroke-width="1" fill="none"></path></g><g transform="translate(785 256) rotate(0 176.46665954589844 50)"><text x="0" y="0" font-family="Virgil, Segoe UI Emoji" font-size="20px" fill="#1e1e1e" text-anchor="start" style="white-space: pre;" direction="ltr" dominant-baseline="text-before-edge">brainglobe-workflows</text><text x="0" y="25" font-family="Virgil, Segoe UI Emoji" font-size="20px" fill="#1e1e1e" text-anchor="start" style="white-space: pre;" direction="ltr" dominant-baseline="text-before-edge">- not-userfacing</text><text x="0" y="50" font-family="Virgil, Segoe UI Emoji" font-size="20px" fill="#1e1e1e" text-anchor="start" style="white-space: pre;" direction="ltr" dominant-baseline="text-before-edge">- benchmarking</text><text x="0" y="75" font-family="Virgil, Segoe UI Emoji" font-size="20px" fill="#1e1e1e" text-anchor="start" style="white-space: pre;" direction="ltr" dominant-baseline="text-before-edge">- scheduled end-to-end smoke tests</text></g><g stroke-linecap="round"><g transform="translate(733 301) rotate(0 -47.337190862 -25.240099601447582)"><path d="M0.03 0.59 C-15.59 -7.92, -79.04 -42.47, -94.71 -51.07 M-1.41 -0.15 C-16.56 -8.46, -76.81 -41.31, -92.36 -49.56" stroke="#1e1e1e" stroke-width="1" fill="none"></path></g><g transform="translate(733 301) rotate(0 -47.337190862 -25.240099601447582)"><path d="M-61.7 -46.4 C-69.31 -46.15, -75.68 -45.55, -93.11 -47.75 M-62.65 -45.06 C-69.59 -45.69, -75.15 -47.17, -92.39 -50.12" stroke="#1e1e1e" stroke-width="1" fill="none"></path></g><g transform="translate(733 301) rotate(0 -47.337190862 -25.240099601447582)"><path d="M-71.44 -28.33 C-76.9 -32.06, -81.14 -35.42, -93.11 -47.75 M-72.38 -26.99 C-77.24 -31.36, -80.79 -36.57, -92.39 -50.12" stroke="#1e1e1e" stroke-width="1" fill="none"></path></g></g><mask></mask><g stroke-linecap="round"><g transform="translate(332 518) rotate(0 -0.36269067066723437 14.104563943236144)"><path d="M-0.96 -0.58 C-1.21 4.17, -0.79 22.64, -1.02 27.51 M0.73 1.72 C0.37 6.73, -0.79 24.64, -1.45 28.79" stroke="#1e1e1e" stroke-width="1" fill="none"></path></g><g transform="translate(332 518) rotate(0 -0.36269067066723437 14.104563943236144)"><path d="M-5.55 16.32 C-4.4 19.39, -1.93 23.86, -1.89 28.29 M-4.84 15.29 C-3.22 19.28, -2.54 24.29, -1.66 28.27" stroke="#1e1e1e" stroke-width="1" fill="none"></path></g><g transform="translate(332 518) rotate(0 -0.36269067066723437 14.104563943236144)"><path d="M4 17.32 C1.93 19.98, 1.19 24.1, -1.89 28.29 M4.71 16.29 C3.01 19.95, 0.37 24.62, -1.66 28.27" stroke="#1e1e1e" stroke-width="1" fill="none"></path></g></g><mask></mask><g transform="translate(406 312) rotate(0 102.18333435058594 62.5)"><text x="0" y="0" font-family="Virgil, Segoe UI Emoji" font-size="20px" fill="#1e1e1e" text-anchor="start" style="white-space: pre;" direction="ltr" dominant-baseline="text-before-edge">should not depend</text><text x="0" y="25" font-family="Virgil, Segoe UI Emoji" font-size="20px" fill="#1e1e1e" text-anchor="start" style="white-space: pre;" direction="ltr" dominant-baseline="text-before-edge">on each other</text><text x="0" y="50" font-family="Virgil, Segoe UI Emoji" font-size="20px" fill="#1e1e1e" text-anchor="start" style="white-space: pre;" direction="ltr" dominant-baseline="text-before-edge"></text><text x="0" y="75" font-family="Virgil, Segoe UI Emoji" font-size="20px" fill="#1e1e1e" text-anchor="start" style="white-space: pre;" direction="ltr" dominant-baseline="text-before-edge">only do what it says</text><text x="0" y="100" font-family="Virgil, Segoe UI Emoji" font-size="20px" fill="#1e1e1e" text-anchor="start" style="white-space: pre;" direction="ltr" dominant-baseline="text-before-edge">on the tin </text></g><g stroke-linecap="round"><g transform="translate(689 272) rotate(0 26.098494200408425 -62.88645208328961)"><path d="M-0.45 0.27 C8.34 -20.62, 43.86 -105.06, 52.65 -126.04 M1.51 -0.63 C10.13 -21.26, 42.63 -103.34, 51.52 -124.53" stroke="#1e1e1e" stroke-width="1" fill="none"></path></g></g><mask></mask><g transform="translate(733 124) rotate(0 52.55833435058594 12.5)"><text x="0" y="0" font-family="Virgil, Segoe UI Emoji" font-size="20px" fill="#1e1e1e" text-anchor="start" style="white-space: pre;" direction="ltr" dominant-baseline="text-before-edge">depends on</text></g><g stroke-linecap="round"><g transform="translate(340 529) rotate(0 117.85104763279205 1.5862272052233948)"><path d="M0.16 -1.15 C39.7 -0.42, 197.34 2.4, 236.92 3.21 M-1.22 0.85 C38.19 1.83, 196.19 3.67, 235.93 4.33" stroke="#1e1e1e" stroke-width="1" fill="none"></path></g></g><mask></mask><g transform="translate(583 519) rotate(0 110.7249984741211 12.5)"><text x="0" y="0" font-family="Virgil, Segoe UI Emoji" font-size="20px" fill="#1e1e1e" text-anchor="start" style="white-space: pre;" direction="ltr" dominant-baseline="text-before-edge">depend on a number of</text></g></svg>